<?xml version="1.0" encoding="iso-8859-1"?>
<!-- Generator: Adobe Illustrator 19.2.1, SVG Export Plug-In . SVG Version: 6.00 Build 0)  -->
<svg version="1.1" xmlns="http://www.w3.org/2000/svg" xmlns:xlink="http://www.w3.org/1999/xlink" x="0px" y="0px"
	 viewBox="0 0 32 32" style="enable-background:new 0 0 32 32;" xml:space="preserve">
<g id="Layer_27">
	<path style="fill:#95CC29;" d="M20,12.485C20,17.424,20,26,20,26l4-4l4,4V10h-8C20,10,20,10.981,20,12.485z"/>
	<path style="fill:#666666;" d="M30,10.184V9c0-1.657-1.344-3-3.001-3H12V5c0-1.657-1.344-3-3.001-3h-6C1.341,2,0,3.343,0,5v2v22
		c0,1.657,1.341,3,2.999,3h2c0.009,0,3.927,0,8.891,0s10.964,0,15.112,0C30.659,32,32,30.655,32,29V13
		C32,11.695,32,10.597,30,10.184z M4.06,12.395C4.02,12.591,4,12.793,4,13v1.428V23v6c0,0.543-0.457,0.999-1,1
		c-0.552-0.001-1-0.448-1-1V7V5c0-0.552,0.447-1,0.999-1h6C9.551,4,10,4.448,10,5v2v1h16.999C27.551,8,28,8.448,28,9v1H6.999
		C5.548,10,4.34,11.028,4.06,12.395z M30,29c0,0.554-0.448,1-0.999,1c-4.147,0-10.148,0-15.112,0c-3.632,0-6.685,0-8.076,0
		C5.925,30,6,29.353,6,29v-6v-8.572V13c0-0.552,0.447-1,0.999-1h22C29.55,12,30,12.448,30,13V29z"/>
	<rect style="fill:none;" width="32" height="32"/>
</g>
<g id="Layer_1">
</g>
</svg>
